# xmcd CD database file generated by OrangeCD 5.2
#
# Track frame offsets:
#	150
#	5558
#	10180
#	22310
#	24266
#	26776
#	27440
#	35469
#	41863
#	51164
#	54079
#	59427
#	63861
#	73469
#	81433
#	90589
#	102545
#	121623
#	143232
#	158843
#	170345
#	193123
#	204958
#	215921
#	221531
#	229947
#	242425
#	250371
#
# Disc length: 3395 seconds
#
# Revision: 0
# Processed by: cddbd v1.5.1PL2 Copyright (c) Steve Scherf et al.
# Submitted via: OrangeCD 5.2
#
DISCID=920d411c
DTITLE=Johnny Cash - Live in rai Amsterdam
DYEAR=1972
DGENRE=Country
TTITLE0=Instrumental - Instro
TTITLE1=Instrumental - Intro
TTITLE2=Carl Perkins - CC Rider
TTITLE3=Instrumental - Intro
TTITLE4=Instrumental - Intro
TTITLE5=Instrumental - Instro
TTITLE6=The Carter Family - Wackitaugh Tennessee
TTITLE7=Instrumental - Intro
TTITLE8=The Carter Family - Wildwood Flower
TTITLE9=Instrumental - Intro
TTITLE10=Instrumental - Late Mountain Lake
TTITLE11=Instrumental - Intro
TTITLE12=The Statler Brothers - Memphis Tennessee
TTITLE13=The Statler Brothers - This Old House
TTITLE14=Note/Intro
TTITLE15=The Statler Brothers - Here's A Picture
TTITLE16=I Walk The Line (Instrumental)/A Boy Named Sue
TTITLE17=Rambling Around/Sunday Morning Coming Down
TTITLE18=These Hands
TTITLE19=Me And Bobby McGee
TTITLE20=Wreck Of The Old 97/Orange Blossom Special
TTITLE21=These Prison Walls
TTITLE22=Cocaine Blues
TTITLE23=Folsom Prison Blues
TTITLE24=I Walk The Line
TTITLE25=Johnny Cash and June Carter Cash - Jackson
TTITLE26=Johnny Cash and June Carter Cash - If I Were A Carpenter
TTITLE27=Johnny Cash and June Carter Cash - Help Me Make It Through The Night (In
TTITLE27=complete)
EXTD=
EXTT0=
EXTT1=
EXTT2=
EXTT3=
EXTT4=
EXTT5=
EXTT6=
EXTT7=
EXTT8=
EXTT9=
EXTT10=
EXTT11=
EXTT12=
EXTT13=
EXTT14=
EXTT15=
EXTT16=
EXTT17=
EXTT18=
EXTT19=
EXTT20=
EXTT21=
EXTT22=
EXTT23=
EXTT24=
EXTT25=
EXTT26=
EXTT27=
PLAYORDER=
